HIERARCHY
ROOT hip
{
	OFFSET 0.000000 0.000000 0.000000 
	CHANNELS 6 Xposition Yposition Zposition Zrotation Xrotation Yrotation
	JOINT abdomen
	{
		OFFSET -0.007523 3.002120 0.001058 
		CHANNELS 3 Zrotation Xrotation Yrotation
		JOINT chest
		{
			OFFSET 0.001864 10.699600 -0.000868 
			CHANNELS 3 Zrotation Xrotation Yrotation
			JOINT neck
			{
				OFFSET -0.000482 12.028400 0.000673 
				CHANNELS 3 Zrotation Xrotation Yrotation
				JOINT head
				{
					OFFSET 0.000000 2.324280 0.001851 
					CHANNELS 3 Zrotation Xrotation Yrotation
					End Site
					{
						OFFSET 0.000000 8.337540 -0.000011 
					}
				}
			}
			JOINT lCollar
			{
				OFFSET 4.142280 8.713310 -1.748190 
				CHANNELS 3 Zrotation Xrotation Yrotation
				JOINT lShldr
				{
					OFFSET 3.198490 0.000000 0.000000 
					CHANNELS 3 Zrotation Xrotation Yrotation
					JOINT lForeArm
					{
						OFFSET 11.267400 0.131802 0.138380 
						CHANNELS 3 Zrotation Xrotation Yrotation
						JOINT lHand
						{
							OFFSET 10.433800 -0.078966 2.117880 
							CHANNELS 3 Zrotation Xrotation Yrotation
							End Site
							{
								OFFSET 5.536070 0.395143 1.598850 
							}
						}
					}
				}
			}
			JOINT rCollar
			{
				OFFSET -4.142280 8.713310 -1.748190 
				CHANNELS 3 Zrotation Xrotation Yrotation
				JOINT rShldr
				{
					OFFSET -3.198490 0.000014 0.000000 
					CHANNELS 3 Zrotation Xrotation Yrotation
					JOINT rForeArm
					{
						OFFSET -11.267400 0.131799 0.138381 
						CHANNELS 3 Zrotation Xrotation Yrotation
						JOINT rHand
						{
							OFFSET -10.433800 -0.078969 2.117920 
							CHANNELS 3 Zrotation Xrotation Yrotation
							End Site
							{
								OFFSET -5.536060 0.395142 1.598870 
							}
						}
					}
				}
			}
		}
	}
	JOINT lThigh
	{
		OFFSET 4.319220 0.000000 0.000000 
		CHANNELS 3 Zrotation Xrotation Yrotation
		JOINT lShin
		{
			OFFSET -1.084330 -20.014099 1.652440 
			CHANNELS 3 Zrotation Xrotation Yrotation
			JOINT lFoot
			{
				OFFSET -1.036480 -19.130800 -1.652470 
				CHANNELS 3 Zrotation Xrotation Yrotation
				JOINT lToe
				{
					OFFSET -0.170343 -2.377870 5.941490 
					CHANNELS 3 Zrotation Xrotation Yrotation
					End Site
					{
						OFFSET 0.000000 0.000000 2.702950 
					}
				}
			}
		}
	}
	JOINT rThigh
	{
		OFFSET -4.319220 0.000000 0.000000 
		CHANNELS 3 Zrotation Xrotation Yrotation
		JOINT rShin
		{
			OFFSET 1.084340 -20.014099 1.652410 
			CHANNELS 3 Zrotation Xrotation Yrotation
			JOINT rFoot
			{
				OFFSET 1.036470 -19.130800 -1.652420 
				CHANNELS 3 Zrotation Xrotation Yrotation
				JOINT rToe
				{
					OFFSET -0.020813 -2.208670 6.008370 
					CHANNELS 3 Zrotation Xrotation Yrotation
					End Site
					{
						OFFSET 0.000000 0.000000 2.702950 
					}
				}
			}
		}
	}
}
MOTION
Frames: 15
Frame Time: 0.033333
1.035250 41.863800 1.997550 1.216170 -12.122100 8.284920 1.032530 13.746400 -1.171270 2.110050 17.796801 -5.779360 5.075610 -0.723867 -0.140049 -3.792630 9.592360 7.874550 -11.319300 3.623790 -17.523800 -54.911900 -18.829100 15.486200 -1.853900 -0.798358 -19.195299 -12.649600 28.584801 2.496250 12.912300 3.194050 13.660100 63.245701 -6.844110 -4.087160 1.272010 -1.049240 12.918300 12.253400 10.807000 -24.723700 10.565500 19.737000 3.301940 0.017045 5.993420 -0.325908 -0.000000 0.000001 0.000002 -6.738370 -13.580800 -1.161320 -3.765670 27.499399 -27.562700 -0.006500 -3.707830 -0.201167 0.000000 0.000001 -0.000002 11.742200 -6.267650 1.216960 
2.465420 42.039001 -0.261677 0.256774 -9.807030 4.222740 -0.697896 16.639099 -2.059240 3.939890 20.605301 -5.068880 6.286530 -3.505880 -0.131723 -4.263690 4.947030 11.247800 -8.819750 3.008810 -18.690100 -63.239700 -13.115900 4.641870 -2.454320 -0.453221 -26.052500 -11.223800 21.791201 -0.544555 12.670800 3.152680 13.745800 63.233200 2.989800 5.194380 1.569210 -0.930565 16.087500 12.873200 6.464810 -23.300800 7.405020 10.730300 8.916070 0.132883 16.475100 -0.918082 0.000000 0.000002 -0.000000 -1.916190 -15.037800 1.703650 -8.124770 19.238001 -22.424500 -0.000440 0.952906 0.051628 -0.000000 0.000001 0.000001 13.240200 -4.393850 0.956461 
4.375760 41.113098 -4.430860 -3.704530 -2.398440 -4.947360 -0.960155 19.221399 -2.693780 5.981250 23.169800 -4.577100 6.841900 -5.667840 -0.064073 -5.411470 -2.508640 21.184401 -7.082420 2.550720 -19.707199 -67.301102 -5.668620 -4.755250 -3.067270 0.010758 -33.660900 -10.695200 16.297001 -3.108920 10.899000 3.174140 16.043301 58.527199 12.932900 15.991900 2.075310 -0.682121 21.670200 13.106700 2.158440 -21.943600 7.609580 -5.428440 17.520300 0.446322 29.037201 -1.723580 0.000001 -0.000002 -0.000001 0.745158 -18.773399 5.545700 -12.275700 -0.089768 -14.481500 -0.158561 17.933800 1.004710 -0.000001 0.000000 -0.000002 19.764799 -9.004700 2.510800 
5.343450 37.832001 -7.885980 -13.579400 1.060270 -0.531664 2.363300 21.034000 -2.997190 8.712130 25.104700 -4.617300 5.201750 -6.287960 0.015433 2.915520 -2.743540 21.626900 -9.113880 3.370490 -20.127001 -56.628700 1.304100 -11.315300 -3.828650 0.810077 -44.585899 -12.615600 17.480400 -4.957380 10.844300 3.216280 16.324400 61.937000 21.507000 18.630501 2.739250 -0.253395 29.495300 15.236400 2.105300 -20.204800 20.332800 -27.087900 7.897890 2.226240 54.362400 -4.333970 -0.000000 -0.000000 -0.000000 2.304620 -26.007200 10.577400 -3.638370 -4.503290 -23.551701 -2.975090 59.263302 5.227780 -0.000004 -0.000002 -0.000003 12.829500 -11.476700 -4.138880 
5.305910 32.152901 -10.557500 -21.601700 0.820511 2.836730 7.022080 22.582899 -3.335200 11.824500 26.801500 -4.988910 4.310210 -5.703540 0.021670 0.026528 -5.094330 19.908899 -9.874680 3.641650 -20.046101 -48.669601 3.970470 -18.159599 -4.565570 2.032260 -58.712799 -14.450900 17.410601 -4.808830 9.720610 3.197350 18.034901 60.348000 23.711599 20.161400 2.749390 -0.245802 29.620399 14.588900 4.462530 -19.938601 23.746700 -50.073502 4.838850 28.776501 84.120499 -31.742399 0.000000 0.000005 0.000000 4.502430 -30.580200 15.048900 1.683680 -0.798838 -22.496099 -5.313500 68.302803 7.826110 0.000002 -0.000000 -0.000000 14.580400 -12.819600 -6.687440 
5.406830 24.819401 -13.623400 -24.550100 -2.182430 -0.777988 12.013400 23.983400 -3.712530 14.860100 28.423901 -5.355010 3.751240 -4.275410 0.060999 -2.610910 -4.241890 23.003799 -7.751650 3.001930 -21.042801 -45.669498 6.029780 -24.757000 -4.971970 3.340390 -72.267303 -15.441500 27.954300 0.801741 9.034640 3.164750 19.147301 59.575100 22.422199 20.002899 2.803150 -0.204948 30.288200 12.150600 8.595110 -19.787500 36.260799 -68.453499 18.002701 167.302994 71.064003 -170.914001 -0.000000 0.000000 -0.000000 11.173200 -36.445999 17.910700 -1.589290 -5.223250 -23.336500 -91.036003 86.890602 94.143204 -0.000003 0.000002 0.000002 8.180570 -46.455101 -8.922530 
4.461320 18.832500 -15.403300 -27.511600 -10.958600 0.231170 16.331699 25.362700 -4.094890 17.335100 30.168301 -5.359330 4.742010 -3.155280 0.092579 -2.608400 -2.709810 18.471300 -5.857630 2.241450 -20.868099 -41.623001 8.577640 -32.553600 -5.062280 4.120350 -80.029999 -26.143700 40.869099 16.066601 10.670600 3.502570 17.964701 62.063000 12.749200 14.712100 2.568310 -0.376318 27.412701 11.043500 11.708700 -16.522699 73.518700 -77.981400 55.909901 171.481003 55.045799 -175.554993 -0.000001 0.000003 -0.000000 12.495000 -28.903400 17.727699 -5.134000 -4.544730 -26.787100 -168.975006 66.893997 172.703995 -0.000000 0.000001 0.000003 -1.502070 -51.136700 -15.471000 
3.508450 16.686199 -16.564899 -25.803499 -15.031800 -6.168590 17.340099 26.939501 -3.916930 16.738701 32.810600 -2.873170 2.687660 -4.076960 0.050122 -5.452900 -2.992980 17.097700 -3.353180 1.064230 -17.588400 -44.017502 7.597440 -36.361698 -5.034780 5.018990 -88.929604 -42.687099 22.443501 32.818401 7.826350 2.818040 19.681200 62.020500 9.670050 12.722000 2.600070 -0.354196 27.795300 13.120300 15.306600 -18.570700 89.711700 -76.998596 71.535202 171.748993 52.933800 -175.886993 -0.000001 -0.000003 -0.000000 10.627200 -26.099701 15.952500 -7.314010 -6.495440 -24.112000 -171.149002 57.314098 175.156006 -0.000001 -0.000000 0.000002 -2.657180 -56.544201 -17.021299 
2.774150 15.962300 -17.659100 -24.725000 -16.470200 -8.456810 16.514400 27.708900 -3.431930 15.300200 34.339802 -0.811287 1.102300 -5.417290 -0.015069 -6.947690 -3.514270 17.641001 -2.968710 0.914263 -17.101900 -43.768600 6.908650 -35.586201 -5.050490 4.849550 -87.245697 -38.411701 23.927900 25.780600 6.623730 2.370450 19.604601 64.966904 6.761130 13.171200 2.969340 -0.072255 32.391300 13.810400 15.500500 -20.837900 96.778397 -74.974297 77.832199 171.753006 52.907501 -175.891006 -0.000000 0.000002 0.000001 8.341740 -23.678699 13.962300 -8.904070 -10.102900 -19.735800 -171.882996 51.771702 176.056000 0.000001 -0.000000 -0.000002 0.095759 -62.301102 -14.822000 
2.312000 16.056400 -18.261801 -23.848499 -16.991699 -9.289030 16.419300 27.371099 -3.308270 16.088900 33.775299 -2.036640 1.223050 -6.477590 -0.020957 -7.754720 -3.078230 19.227400 -2.335950 0.729477 -17.333099 -46.562599 6.161660 -32.213001 -5.064540 4.613990 -84.911598 -36.167999 25.530600 24.033100 6.458070 2.255600 19.172501 64.703903 9.084760 13.936100 2.952150 -0.086461 32.170898 13.580000 15.661600 -20.767900 99.388702 -72.840202 79.623199 171.632004 53.891102 -175.740997 0.000001 -0.000002 -0.000000 5.938310 -21.449499 12.042700 -8.119910 -10.770100 -19.636400 -171.951004 51.150902 176.143005 0.000001 0.000002 -0.000001 0.303172 -62.223000 -14.611900 
2.110890 16.002600 -18.387800 -23.180700 -16.949100 -9.877300 16.188999 27.471201 -3.166870 16.065701 33.764599 -2.267770 1.621980 -7.337960 -0.004961 -7.435230 -3.851690 20.018499 -1.196760 0.383757 -17.776699 -47.666199 5.475070 -30.253099 -5.058260 4.743360 -86.192703 -37.439899 24.830099 25.589600 6.281240 2.214260 19.341999 65.601601 8.051020 13.721400 3.104530 0.043375 34.150200 12.245600 15.799400 -20.013201 101.175003 -70.974701 80.696503 171.513000 54.808300 -175.593994 0.000000 0.000002 -0.000000 3.810620 -19.299200 10.489500 -8.105870 -11.608300 -19.233601 -172.005005 50.642899 176.212006 -0.000001 -0.000001 0.000002 0.665849 -63.045200 -13.753300 
1.971180 15.944000 -18.427200 -22.578600 -16.638300 -10.353800 15.934000 27.623199 -3.020890 15.942200 33.806702 -2.394160 1.665640 -7.779710 0.001180 -7.523860 -4.172240 20.474701 -0.486322 0.156487 -17.835501 -48.354599 5.783420 -30.474199 -5.045940 4.906650 -87.812500 -37.558300 25.320900 24.670500 6.177940 2.148600 19.103901 66.059799 7.868940 13.579800 3.161470 0.094264 34.904999 10.548600 17.451599 -18.395901 102.811996 -70.147003 82.025803 171.487000 55.000198 -175.563004 0.000000 -0.000000 -0.000000 2.281050 -17.640301 9.776560 -8.664150 -12.499400 -18.774500 -172.076004 49.943401 176.304993 0.000003 0.000000 -0.000000 0.856839 -64.186401 -12.934600 
1.851770 15.906200 -18.450899 -22.021000 -16.167299 -10.720800 15.676000 27.794901 -2.885380 15.770300 33.867401 -2.472650 1.528310 -7.828920 0.004679 -7.842150 -4.244440 20.545601 -0.464676 0.151244 -18.028999 -48.329399 5.526970 -30.405100 -5.022900 5.118810 -89.924500 -36.014900 25.092300 25.988400 6.363310 2.192530 18.934799 65.585403 7.984990 13.740300 3.187210 0.117739 35.249401 10.537100 15.856100 -18.325800 102.178001 -70.644699 81.629501 171.470993 55.115002 -175.544006 -0.000000 0.000000 0.000001 1.344240 -17.446600 9.992550 -9.221480 -13.073400 -18.675200 -172.106003 49.651199 176.343002 0.000001 0.000000 0.000001 0.471907 -64.671402 -12.936800 
1.907850 15.888900 -18.363501 -21.513901 -15.627700 -11.023100 15.437200 27.954000 -2.775970 15.602100 33.912300 -2.560310 1.532440 -7.824680 0.008154 -7.956650 -4.311630 20.756599 -0.731222 0.237848 -18.017900 -47.749199 5.092290 -29.992599 -5.014240 5.183090 -90.566200 -37.256401 24.311701 25.955601 6.373700 2.201390 18.976900 65.940399 8.339960 13.909700 3.219830 0.147884 35.688599 10.938800 15.961800 -18.066200 102.501999 -70.352097 82.164597 171.501007 54.893501 -175.580002 0.000000 -0.000002 -0.000000 1.228890 -17.804600 10.184000 -9.260260 -13.537400 -18.307699 -172.082001 49.887402 176.313004 -0.000001 0.000000 -0.000001 0.336144 -64.786499 -13.294400 
2.022550 15.779400 -18.249201 -21.063000 -15.112200 -11.303700 15.388600 27.998100 -2.929800 15.450500 33.801899 -2.734470 1.864900 -7.976260 0.011889 -7.784880 -4.277410 21.611000 -0.599646 0.193424 -17.878099 -48.087002 4.768610 -29.465700 -5.005810 5.242930 -91.164703 -37.677601 24.741501 26.035601 6.435160 2.211950 18.890800 65.914001 8.395870 13.838700 3.295340 0.219465 36.717098 12.834300 13.348000 -17.455900 102.892998 -69.980103 82.811401 171.544998 54.562901 -175.634003 -0.000000 0.000003 0.000000 1.431850 -18.465200 10.471200 -10.127000 -14.388100 -17.514000 -172.100998 49.695301 176.337997 -0.000000 0.000000 0.000001 1.263140 -64.211098 -12.576100 
